<svg width="26" height="26" viewBox="0 0 26 26" fill="none" xmlns="http://www.w3.org/2000/svg">
<path fill-rule="evenodd" clip-rule="evenodd" d="M7.3125 13.8125C7.3125 13.3638 7.67627 13 8.125 13H17.875C18.3237 13 18.6875 13.3638 18.6875 13.8125C18.6875 14.2612 18.3237 14.625 17.875 14.625H8.125C7.67627 14.625 7.3125 14.2612 7.3125 13.8125Z" fill="white"/>
<path fill-rule="evenodd" clip-rule="evenodd" d="M8.125 4.875C7.47853 4.875 6.85855 5.13181 6.40143 5.58893C5.94431 6.04605 5.6875 6.66603 5.6875 7.3125V9.75C5.6875 10.1987 5.32373 10.5625 4.875 10.5625C4.42627 10.5625 4.0625 10.1987 4.0625 9.75V7.3125C4.0625 6.23506 4.49051 5.20175 5.25238 4.43988C6.01425 3.67801 7.04756 3.25 8.125 3.25H17.875C18.9524 3.25 19.9858 3.67801 20.7476 4.43988C21.5095 5.20174 21.9375 6.23506 21.9375 7.3125V9.75C21.9375 10.1987 21.5737 10.5625 21.125 10.5625C20.6763 10.5625 20.3125 10.1987 20.3125 9.75V7.3125C20.3125 6.66604 20.0557 6.04605 19.5986 5.58893C19.1415 5.13181 18.5215 4.875 17.875 4.875H8.125Z" fill="white"/>
<path fill-rule="evenodd" clip-rule="evenodd" d="M4.08245 9.01556C4.87049 8.85881 5.68733 8.93926 6.42965 9.24674C7.17198 9.55422 7.80645 10.0749 8.25285 10.743C8.69924 11.4111 8.9375 12.1965 8.9375 13V17.0625C8.9375 17.5112 8.57373 17.875 8.125 17.875C7.67627 17.875 7.3125 17.5112 7.3125 17.0625V13C7.3125 12.5179 7.16954 12.0466 6.90171 11.6458C6.63387 11.245 6.25319 10.9325 5.80779 10.748C5.3624 10.5636 4.8723 10.5153 4.39947 10.6093C3.92664 10.7034 3.49232 10.9355 3.15143 11.2764C2.81054 11.6173 2.57839 12.0516 2.48434 12.5245C2.39029 12.9973 2.43856 13.4874 2.62305 13.9328C2.80753 14.3782 3.11995 14.7589 3.5208 15.0267C3.92164 15.2945 4.39291 15.4375 4.875 15.4375C5.32373 15.4375 5.6875 15.8013 5.6875 16.25V20.3125H20.3125V16.25C20.3125 15.8013 20.6763 15.4375 21.125 15.4375C21.6071 15.4375 22.0784 15.2945 22.4792 15.0267C22.88 14.7589 23.1925 14.3782 23.377 13.9328C23.5614 13.4874 23.6097 12.9973 23.5157 12.5245C23.4216 12.0516 23.1895 11.6173 22.8486 11.2764C22.5077 10.9355 22.0734 10.7034 21.6005 10.6093C21.1277 10.5153 20.6376 10.5636 20.1922 10.748C19.7468 10.9325 19.3661 11.245 19.0983 11.6458C18.8305 12.0466 18.6875 12.5179 18.6875 13V17.0625C18.6875 17.5112 18.3237 17.875 17.875 17.875C17.4263 17.875 17.0625 17.5112 17.0625 17.0625V13C17.0625 12.1965 17.3008 11.4111 17.7472 10.743C18.1935 10.0749 18.828 9.55422 19.5703 9.24674C20.3127 8.93926 21.1295 8.85881 21.9176 9.01556C22.7056 9.17231 23.4295 9.55923 23.9976 10.1274C24.5658 10.6955 24.9527 11.4194 25.1094 12.2074C25.2662 12.9955 25.1857 13.8123 24.8783 14.5547C24.5708 15.297 24.0501 15.9315 23.382 16.3778C22.942 16.6719 22.451 16.8756 21.9375 16.9804V20.3125C21.9375 20.7435 21.7663 21.1568 21.4615 21.4615C21.1568 21.7663 20.7435 21.9375 20.3125 21.9375H5.6875C5.25653 21.9375 4.8432 21.7663 4.53845 21.4615C4.23371 21.1568 4.0625 20.7435 4.0625 20.3125V16.9804C3.549 16.8756 3.05804 16.6719 2.618 16.3778C1.94992 15.9315 1.42922 15.297 1.12174 14.5547C0.81426 13.8123 0.733809 12.9955 0.890562 12.2074C1.04731 11.4194 1.43423 10.6955 2.00238 10.1274C2.57053 9.55923 3.2944 9.17231 4.08245 9.01556Z" fill="white"/>
</svg>
